<svg id="instagram" xmlns="http://www.w3.org/2000/svg" width="42.642" height="42.642" viewBox="0 0 42.642 42.642">
  <path id="Path_7" data-name="Path 7" d="M218.5,214.748A3.748,3.748,0,1,1,214.748,211,3.748,3.748,0,0,1,218.5,214.748Zm0,0" transform="translate(-193.427 -193.427)"/>
  <path id="Path_8" data-name="Path 8" d="M137.657,120H125a5,5,0,0,0-5,5v12.659a5,5,0,0,0,5,5h12.659a5,5,0,0,0,5-5V125A5,5,0,0,0,137.657,120Zm-6.33,17.573a6.246,6.246,0,1,1,6.246-6.246A6.254,6.254,0,0,1,131.327,137.573Zm7.163-12.16a1.249,1.249,0,1,1,1.249-1.249A1.249,1.249,0,0,1,138.49,125.414Zm0,0" transform="translate(-110.006 -110.006)"/>
  <path id="Path_9" data-name="Path 9" d="M31.4,0H11.244A11.257,11.257,0,0,0,0,11.244V31.4A11.257,11.257,0,0,0,11.244,42.642H31.4A11.257,11.257,0,0,0,42.642,31.4V11.244A11.257,11.257,0,0,0,31.4,0Zm3.748,27.651a7.5,7.5,0,0,1-7.5,7.5H14.991a7.5,7.5,0,0,1-7.5-7.5V14.991a7.5,7.5,0,0,1,7.5-7.5H27.651a7.5,7.5,0,0,1,7.5,7.5Zm0,0"/>
</svg>
