<svg xmlns="http://www.w3.org/2000/svg" width="114.462" height="93" viewBox="0 0 114.462 93">
  <path id="twitter" d="M114.462,59.01a48.924,48.924,0,0,1-13.521,3.706,23.334,23.334,0,0,0,10.323-12.97,46.9,46.9,0,0,1-14.88,5.68A23.464,23.464,0,0,0,55.793,71.472a24.162,24.162,0,0,0,.544,5.351A66.42,66.42,0,0,1,7.969,52.278,23.472,23.472,0,0,0,15.18,83.64a23.174,23.174,0,0,1-10.6-2.89v.258a23.574,23.574,0,0,0,18.8,23.057,23.42,23.42,0,0,1-6.152.773,20.748,20.748,0,0,1-4.443-.4A23.689,23.689,0,0,0,34.71,120.783,47.15,47.15,0,0,1,5.616,130.791,43.953,43.953,0,0,1,0,130.47,66.062,66.062,0,0,0,36,141c43.181,0,66.788-35.769,66.788-66.774,0-1.037-.036-2.039-.086-3.033A46.812,46.812,0,0,0,114.462,59.01Z" transform="translate(0 -48)"/>
</svg>
